<?xml version="1.0" standalone="no"?>
<!DOCTYPE svg PUBLIC "-//W3C//DTD SVG 20010904//EN"
 "http://www.w3.org/TR/2001/REC-SVG-20010904/DTD/svg10.dtd">
<svg version="1.0" xmlns="http://www.w3.org/2000/svg"
 width="400.000000pt" height="116.000000pt" viewBox="0 0 400.000000 116.000000"
 preserveAspectRatio="xMidYMid meet">

<g transform="translate(0.000000,116.000000) scale(0.100000,-0.100000)"
fill="#000000" stroke="none">
<path d="M444 1000 c-44 -18 -213 -272 -218 -330 -1 -8 -15 -53 -30 -100 -33
-99 -40 -207 -16 -254 26 -50 57 -66 146 -72 l81 -7 27 35 c32 43 108 226 104
253 -4 25 -60 32 -97 13 -20 -10 -25 -21 -26 -53 -2 -57 -40 -138 -62 -133
-41 8 -52 107 -28 256 27 168 135 366 177 324 4 -4 5 -66 0 -136 l-7 -128 23
-9 c30 -12 66 -2 88 23 26 28 31 139 10 211 -22 75 -62 117 -113 116 -21 0
-48 -4 -59 -9z"/>
<path d="M3018 894 c-15 -20 -35 -56 -44 -80 -15 -40 -20 -44 -60 -50 -50 -7
-56 -20 -18 -34 29 -12 30 -7 -7 -133 -19 -68 -30 -85 -80 -137 -62 -63 -112
-94 -171 -105 -30 -6 -38 -4 -47 13 -16 31 -13 72 10 122 22 50 80 143 85 137
2 -1 -4 -23 -12 -47 -14 -41 -14 -45 3 -58 16 -11 20 -10 36 9 12 16 17 39 17
90 0 65 -1 69 -25 75 -44 11 -89 -4 -127 -44 -37 -38 -88 -128 -88 -155 0 -8
-20 -33 -45 -55 -102 -90 -187 -96 -221 -17 -19 46 -17 75 5 104 l19 24 16
-31 c26 -51 60 -44 91 18 14 27 25 59 25 70 0 38 -28 78 -60 85 -16 4 -32 11
-35 16 -24 38 -141 -59 -151 -125 -10 -68 -24 -96 -68 -137 -57 -53 -110 -83
-132 -75 -14 5 -16 17 -9 84 9 96 10 150 5 155 -3 3 -20 8 -39 12 -33 7 -37 4
-111 -74 -42 -44 -81 -81 -88 -81 -15 0 -17 -5 18 75 37 87 39 143 7 173 -13
12 -28 22 -33 22 -5 0 -39 -57 -74 -127 -47 -95 -75 -139 -109 -170 -58 -53
-103 -78 -126 -69 -18 7 -18 35 1 181 6 49 -2 60 -43 69 -31 7 -37 3 -109 -73
-101 -106 -119 -106 -69 1 35 75 34 140 -2 174 l-27 25 -15 -28 c-8 -15 -38
-73 -67 -128 l-52 -100 -63 0 -64 0 -7 62 c-8 75 -27 114 -73 148 -37 29 -58
28 -93 -6 -24 -22 -29 -69 -12 -113 8 -21 5 -33 -15 -62 -48 -71 -57 -164 -19
-205 11 -12 31 -19 55 -19 49 0 90 35 123 105 l26 53 62 4 c35 2 64 3 66 2 1
-1 -6 -35 -18 -75 -11 -40 -18 -81 -15 -90 7 -22 71 -34 106 -20 17 6 29 22
37 49 7 22 29 63 50 90 45 59 128 152 136 152 3 0 6 -34 6 -75 0 -114 31 -155
116 -155 39 0 68 12 102 44 l24 21 -8 -30 c-5 -16 -8 -43 -9 -59 0 -24 5 -31
30 -38 17 -5 44 -6 62 -3 26 5 34 12 46 50 9 25 28 62 44 82 54 73 136 162
144 157 5 -3 8 -35 8 -72 -1 -37 4 -79 9 -94 21 -52 111 -75 172 -43 17 9 30
19 30 23 1 4 19 27 42 52 23 25 39 37 35 28 -10 -28 20 -86 54 -104 17 -8 55
-18 83 -21 62 -6 138 22 182 68 32 33 44 36 44 11 0 -52 80 -102 161 -102 61
0 123 31 163 82 l26 33 0 -43 c0 -89 54 -162 120 -162 49 0 93 31 155 108 l50
63 6 -30 c10 -46 27 -61 70 -61 50 0 99 42 128 110 l22 50 48 0 c27 0 63 3 80
6 l31 7 0 -60 c0 -68 19 -103 55 -103 32 0 40 14 120 195 37 83 70 153 74 157
3 4 5 -23 3 -61 -4 -63 -2 -70 19 -85 30 -20 42 -20 66 2 10 9 14 14 9 10 -25
-20 -36 -7 -36 41 0 63 -17 111 -39 111 -26 0 -47 -28 -99 -131 -26 -51 -53
-94 -59 -97 -20 -6 -16 14 22 99 19 44 35 92 35 108 0 32 -46 81 -77 81 -26 0
-59 -73 -77 -167 -14 -77 -25 -85 -104 -81 -55 3 -57 4 -60 33 -8 93 -15 117
-44 151 -46 52 -62 58 -103 38 -43 -20 -53 -51 -36 -112 10 -37 9 -47 -3 -61
-8 -9 -28 -46 -45 -83 -30 -69 -102 -151 -142 -163 -46 -15 -68 48 -51 149 11
66 96 283 119 302 7 6 36 14 63 17 85 10 95 26 16 27 l-68 0 6 35 c4 19 4 51
0 70 -6 31 -10 35 -38 35 -24 -1 -37 -9 -58 -36z m65 2 c7 -17 -11 -97 -24
-110 -6 -6 -13 -6 -21 2 -9 9 -8 24 7 67 18 56 29 66 38 41z m-33 -166 c0 -16
-62 -151 -68 -146 -4 5 15 95 29 134 8 22 39 32 39 12z m-2256 -50 c47 -57 43
-175 -7 -168 -29 4 -87 90 -87 129 0 31 30 69 54 69 8 0 26 -14 40 -30z m2539
2 c20 -20 29 -43 33 -79 12 -97 -34 -122 -87 -48 -40 56 -46 94 -19 128 27 34
40 34 73 -1z m-993 -57 c0 -9 -7 -30 -16 -46 -11 -22 -21 -29 -37 -27 -31 4
-32 30 -3 61 28 30 56 36 56 12z m-1567 -217 c-33 -61 -53 -73 -53 -30 0 36
34 82 61 82 19 0 19 -3 -8 -52z m2567 47 c0 -13 -40 -82 -53 -94 -34 -27 -33
45 0 82 15 16 53 24 53 12z"/>
</g>
</svg>
